<?xml version="1.0" standalone="no"?>
<svg viewBox="0 0 200 200" xmlns="http://www.w3.org/2000/svg">
  <path fill="#EEEEEE" d="M30.3,-38.9C43.7,-38.4,62.2,-37.6,71.8,-29.1C81.5,-20.6,82.3,-4.3,74.2,6.5C66.2,17.3,49.2,22.6,38.5,31.4C27.8,40.1,23.3,52.1,15.9,54.3C8.5,56.5,-1.8,48.9,-13.5,45.7C-25.3,42.4,-38.5,43.6,-45.3,38C-52.1,32.4,-52.5,20,-57.6,6.2C-62.8,-7.5,-72.7,-22.6,-72.4,-37.2C-72.2,-51.7,-61.7,-65.7,-47.9,-66.1C-34.2,-66.4,-17.1,-53.1,-4.3,-46.4C8.4,-39.6,16.8,-39.4,30.3,-38.9Z" transform="translate(100 100)" />
</svg>
